<svg width="36" height="36" viewBox="0 0 36 36" fill="none" xmlns="http://www.w3.org/2000/svg">
    <path d="M34 16.78C34.3717 16.5031 34.6474 16.1169 34.7884 15.6754C34.9295 15.2339 34.9288 14.7594 34.7866 14.3183C34.6443 13.8772 34.3676 13.4917 33.9952 13.2158C33.6228 12.94 33.1734 12.7876 32.71 12.78L23.71 12.44C23.6658 12.4369 23.6233 12.4212 23.5878 12.3945C23.5524 12.3679 23.5253 12.3316 23.51 12.29L20.4 3.89C20.2437 3.46264 19.9599 3.09362 19.587 2.8329C19.2141 2.57218 18.77 2.43235 18.315 2.43235C17.86 2.43235 17.4159 2.57218 17.043 2.8329C16.6701 3.09362 16.3863 3.46264 16.23 3.89L13.13 12.32C13.1147 12.3616 13.0876 12.3979 13.0522 12.4245C13.0167 12.4512 12.9743 12.4669 12.93 12.47L3.93 12.81C3.46661 12.8176 3.0172 12.97 2.64479 13.2458C2.27239 13.5217 1.99566 13.9072 1.85341 14.3483C1.71116 14.7894 1.71052 15.2639 1.85159 15.7054C1.99265 16.1469 2.26834 16.5331 2.64 16.81L9.7 22.36C9.73533 22.3878 9.76174 22.4254 9.77596 22.468C9.79018 22.5107 9.79158 22.5566 9.78 22.6L7.35 31.21C7.22408 31.6484 7.23628 32.115 7.38494 32.5463C7.5336 32.9776 7.81151 33.3526 8.18085 33.6203C8.55019 33.888 8.99304 34.0354 9.44916 34.0426C9.90527 34.0497 10.3525 33.9161 10.73 33.66L18.19 28.66C18.2267 28.6346 18.2703 28.621 18.315 28.621C18.3597 28.621 18.4033 28.6346 18.44 28.66L25.9 33.66C26.2724 33.9248 26.718 34.0671 27.175 34.0671C27.632 34.0671 28.0776 33.9248 28.45 33.66C28.8194 33.3948 29.0976 33.0216 29.2462 32.5918C29.3949 32.1621 29.4067 31.6968 29.28 31.26L26.83 22.62C26.817 22.5766 26.8177 22.5303 26.8321 22.4874C26.8464 22.4444 26.8736 22.4069 26.91 22.38L34 16.78Z"/>
</svg>
